<mxfile host="app.diagrams.net" modified="2023-09-20T04:04:46.657Z" agent="Mozilla/5.0 (Windows NT 10.0; Win64; x64; rv:109.0) Gecko/20100101 Firefox/117.0" etag="TeOWGs3ag0-E5ytBIrIQ" version="21.7.5" type="github">
  <diagram name="Page-1" id="f1b7ffb7-ca1e-a977-7cf5-a751b3c06c05">
    <mxGraphModel dx="1518" dy="895" grid="1" gridSize="10" guides="1" tooltips="1" connect="1" arrows="1" fold="1" page="1" pageScale="1" pageWidth="826" pageHeight="1169" background="#ffffff" math="0" shadow="0">
      <root>
        <mxCell id="0" />
        <mxCell id="1" parent="0" />
        <mxCell id="13" value="" style="verticalLabelPosition=bottom;verticalAlign=top;strokeWidth=1;shape=mxgraph.mockup.graphics.iconGrid;strokeColor=#CCCCCC;gridSize=1,1;" parent="1" vertex="1">
          <mxGeometry x="150" y="120" width="570" height="390" as="geometry" />
        </mxCell>
        <mxCell id="2" value="Blog Name" style="text;spacingTop=-5;fontSize=18;fontStyle=0" parent="1" vertex="1">
          <mxGeometry x="70" y="40" width="230" height="20" as="geometry" />
        </mxCell>
        <mxCell id="3" value="" style="line;strokeWidth=1" parent="1" vertex="1">
          <mxGeometry x="20" y="5" width="780" height="10" as="geometry" />
        </mxCell>
        <mxCell id="4" value="" style="line;strokeWidth=1" parent="1" vertex="1">
          <mxGeometry x="20" y="90" width="780" height="10" as="geometry" />
        </mxCell>
        <mxCell id="5" value="Home" style="text;spacingTop=-5;fontSize=16;" parent="1" vertex="1">
          <mxGeometry x="663.75" y="40" width="36.25" height="20" as="geometry" />
        </mxCell>
        <mxCell id="6" value="About" style="text;spacingTop=-5;fontSize=16;" parent="1" vertex="1">
          <mxGeometry x="739.9999999999999" y="40.000000000000156" width="30" height="20" as="geometry" />
        </mxCell>
        <mxCell id="8" value="Article 1" style="text;spacingTop=-5;" parent="1" vertex="1">
          <mxGeometry x="150" y="120" width="30" height="20" as="geometry" />
        </mxCell>
        <mxCell id="20" value="" style="verticalLabelPosition=bottom;verticalAlign=top;strokeWidth=1;shape=mxgraph.mockup.graphics.iconGrid;strokeColor=#CCCCCC;gridSize=1,1;" parent="1" vertex="1">
          <mxGeometry x="20" y="30" width="40" height="40" as="geometry" />
        </mxCell>
        <mxCell id="21" value="Blog &#xa;Logo" style="text;spacingTop=-5;align=center" parent="1" vertex="1">
          <mxGeometry x="20" y="30" width="40" height="40" as="geometry" />
        </mxCell>
        <mxCell id="MFAVZBfr_c1cwXmYvkoI-70" value="" style="verticalLabelPosition=bottom;verticalAlign=top;strokeWidth=1;shape=mxgraph.mockup.graphics.iconGrid;strokeColor=#CCCCCC;gridSize=1,1;" vertex="1" parent="1">
          <mxGeometry x="257.5" y="191.25" width="355" height="247.5" as="geometry" />
        </mxCell>
        <mxCell id="26" value="Article&#xa;Picture" style="text;spacingTop=-5;align=center;verticalAlign=middle;fontSize=36;fontColor=#CCCCCC" parent="1" vertex="1">
          <mxGeometry x="255" y="215" width="360" height="200" as="geometry" />
        </mxCell>
        <mxCell id="MFAVZBfr_c1cwXmYvkoI-71" value="" style="verticalLabelPosition=bottom;verticalAlign=top;strokeWidth=1;shape=mxgraph.mockup.graphics.iconGrid;strokeColor=#CCCCCC;gridSize=1,1;" vertex="1" parent="1">
          <mxGeometry x="150" y="540" width="570" height="200" as="geometry" />
        </mxCell>
        <mxCell id="MFAVZBfr_c1cwXmYvkoI-76" value="Some Text" style="text;spacingTop=-5;align=center;verticalAlign=middle;fontSize=36;fontColor=#CCCCCC" vertex="1" parent="1">
          <mxGeometry x="255" y="540" width="360" height="200" as="geometry" />
        </mxCell>
        <mxCell id="MFAVZBfr_c1cwXmYvkoI-77" value="" style="verticalLabelPosition=bottom;verticalAlign=top;strokeWidth=1;shape=mxgraph.mockup.graphics.iconGrid;strokeColor=#CCCCCC;gridSize=1,1;" vertex="1" parent="1">
          <mxGeometry x="150" y="770" width="570" height="390" as="geometry" />
        </mxCell>
        <mxCell id="MFAVZBfr_c1cwXmYvkoI-78" value="Article 2" style="text;spacingTop=-5;" vertex="1" parent="1">
          <mxGeometry x="150" y="770" width="30" height="20" as="geometry" />
        </mxCell>
        <mxCell id="MFAVZBfr_c1cwXmYvkoI-79" value="" style="verticalLabelPosition=bottom;verticalAlign=top;strokeWidth=1;shape=mxgraph.mockup.graphics.iconGrid;strokeColor=#CCCCCC;gridSize=1,1;" vertex="1" parent="1">
          <mxGeometry x="150" y="841.25" width="280" height="247.5" as="geometry" />
        </mxCell>
        <mxCell id="MFAVZBfr_c1cwXmYvkoI-80" value="Article&#xa;Picture" style="text;spacingTop=-5;align=center;verticalAlign=middle;fontSize=36;fontColor=#CCCCCC" vertex="1" parent="1">
          <mxGeometry x="137.5" y="865" width="292.5" height="200" as="geometry" />
        </mxCell>
        <mxCell id="MFAVZBfr_c1cwXmYvkoI-81" value="" style="verticalLabelPosition=bottom;verticalAlign=top;strokeWidth=1;shape=mxgraph.mockup.graphics.iconGrid;strokeColor=#CCCCCC;gridSize=1,1;" vertex="1" parent="1">
          <mxGeometry x="430" y="841.25" width="290" height="247.5" as="geometry" />
        </mxCell>
        <mxCell id="MFAVZBfr_c1cwXmYvkoI-82" value="Article&#xa;Picture" style="text;spacingTop=-5;align=center;verticalAlign=middle;fontSize=36;fontColor=#CCCCCC" vertex="1" parent="1">
          <mxGeometry x="430" y="865" width="290" height="200" as="geometry" />
        </mxCell>
        <mxCell id="MFAVZBfr_c1cwXmYvkoI-85" style="edgeStyle=orthogonalEdgeStyle;rounded=0;orthogonalLoop=1;jettySize=auto;html=1;exitX=1;exitY=0.5;exitDx=0;exitDy=0;entryX=1;entryY=0.75;entryDx=0;entryDy=0;" edge="1" parent="1" source="MFAVZBfr_c1cwXmYvkoI-78" target="MFAVZBfr_c1cwXmYvkoI-78">
          <mxGeometry relative="1" as="geometry" />
        </mxCell>
      </root>
    </mxGraphModel>
  </diagram>
</mxfile>
